<svg width="195" height="46" viewBox="0 0 195 46" fill="none" xmlns="http://www.w3.org/2000/svg">
<path d="M16.08 36.432C11.92 36.432 8.592 35.44 6.096 33.456C3.6 31.472 2.144 28.64 1.728 24.96H6.672C6.96 27.36 7.92 29.184 9.552 30.432C11.184 31.68 13.392 32.304 16.176 32.304C18.512 32.304 20.272 31.872 21.456 31.008C22.672 30.144 23.28 28.912 23.28 27.312C23.28 25.872 22.88 24.736 22.08 23.904C21.28 23.04 20.016 22.336 18.288 21.792L12.288 19.872C9.216 18.88 6.96 17.632 5.52 16.128C4.08 14.624 3.36 12.72 3.36 10.416C3.36 8.464 3.84 6.784 4.8 5.376C5.792 3.968 7.168 2.88 8.928 2.112C10.72 1.312 12.8 0.912 15.168 0.912C18.816 0.912 21.728 1.84 23.904 3.696C26.112 5.52 27.376 8.064 27.696 11.328H22.752C22.368 9.152 21.536 7.568 20.256 6.576C18.976 5.552 17.216 5.04 14.976 5.04C12.864 5.04 11.216 5.456 10.032 6.288C8.848 7.12 8.256 8.288 8.256 9.792C8.256 11.008 8.64 12.032 9.408 12.864C10.208 13.664 11.52 14.352 13.344 14.928L19.632 16.944C22.544 17.872 24.688 19.136 26.064 20.736C27.472 22.336 28.176 24.352 28.176 26.784C28.176 29.856 27.12 32.24 25.008 33.936C22.896 35.6 19.92 36.432 16.08 36.432ZM31.0571 36V11.52H36.0491V36H31.0571ZM30.8171 6.72V1.104H36.3371V6.72H30.8171ZM40.6571 36V1.44H45.6491V36H40.6571ZM60.9131 36.48C58.4171 36.48 56.2251 35.936 54.3371 34.848C52.4491 33.728 50.9771 32.208 49.9211 30.288C48.8651 28.336 48.3371 26.128 48.3371 23.664C48.3371 21.168 48.8651 18.976 49.9211 17.088C51.0091 15.2 52.4811 13.728 54.3371 12.672C56.2251 11.584 58.4171 11.04 60.9131 11.04C63.4411 11.04 65.6491 11.584 67.5371 12.672C69.4251 13.728 70.8811 15.2 71.9051 17.088C72.9611 18.976 73.4891 21.168 73.4891 23.664C73.4891 26.128 72.9611 28.336 71.9051 30.288C70.8811 32.208 69.4251 33.728 67.5371 34.848C65.6491 35.936 63.4411 36.48 60.9131 36.48ZM60.9131 32.4C62.4171 32.4 63.7131 32.032 64.8011 31.296C65.9211 30.56 66.8011 29.536 67.4411 28.224C68.0811 26.912 68.4011 25.376 68.4011 23.616C68.4011 20.992 67.6971 18.928 66.2891 17.424C64.9131 15.888 63.1211 15.12 60.9131 15.12C58.7371 15.12 56.9451 15.888 55.5371 17.424C54.1611 18.96 53.4731 21.024 53.4731 23.616C53.4731 25.376 53.7771 26.912 54.3851 28.224C55.0251 29.536 55.9051 30.56 57.0251 31.296C58.1771 32.032 59.4731 32.4 60.9131 32.4ZM77.2905 45.84L83.1945 32.352L84.2025 30.768L91.6425 11.52H96.8265L82.4265 45.84H77.2905ZM82.9545 36L72.4905 11.52H77.9145L86.7945 33.552L82.9545 36Z" fill="white"/>
<path d="M108 2H179C184.601 2 187.401 2 189.54 3.08993C191.422 4.04867 192.951 5.57847 193.91 7.46009C195 9.59921 195 12.3995 195 18V35H124C118.399 35 115.599 35 113.46 33.9101C111.578 32.9513 110.049 31.4215 109.09 29.5399C108 27.4008 108 24.6005 108 19V2Z" fill="white"/>
<path d="M124.216 27V12.552H118.576V9.72H133.552V12.552H127.912V27H124.216ZM143.701 27.24C141.237 27.24 139.389 26.568 138.157 25.224C136.941 23.864 136.333 21.888 136.333 19.296V9.72H140.029V19.944C140.029 21.448 140.357 22.552 141.013 23.256C141.669 23.96 142.573 24.312 143.725 24.312C144.877 24.312 145.781 23.96 146.437 23.256C147.093 22.552 147.421 21.456 147.421 19.968V9.72H151.117V19.344C151.117 21.904 150.501 23.864 149.269 25.224C148.037 26.568 146.181 27.24 143.701 27.24ZM157.39 27V24.36H161.854C162.654 24.36 163.254 24.144 163.654 23.712C164.07 23.264 164.278 22.648 164.278 21.864C164.278 21.064 164.054 20.432 163.606 19.968C163.174 19.504 162.55 19.272 161.734 19.272H157.39V16.632H161.542C162.294 16.632 162.862 16.456 163.246 16.104C163.646 15.736 163.846 15.2 163.846 14.496C163.846 13.792 163.654 13.264 163.27 12.912C162.902 12.544 162.35 12.36 161.614 12.36H157.39V9.72H162.406C163.942 9.72 165.182 10.112 166.126 10.896C167.07 11.68 167.542 12.744 167.542 14.088C167.542 14.936 167.342 15.664 166.942 16.272C166.542 16.88 166.006 17.344 165.334 17.664C164.662 17.984 163.91 18.144 163.078 18.144L163.198 17.64C164.094 17.64 164.902 17.832 165.622 18.216C166.358 18.6 166.942 19.144 167.374 19.848C167.806 20.536 168.022 21.352 168.022 22.296C168.022 23.24 167.798 24.072 167.35 24.792C166.918 25.496 166.302 26.04 165.502 26.424C164.718 26.808 163.79 27 162.718 27H157.39ZM154.366 27V9.72H158.062V27H154.366ZM171.152 27V9.72H174.848V27H171.152ZM172.88 27V24.168H184.016V27H172.88ZM172.88 19.56V16.776H183.176V19.56H172.88ZM172.88 12.552V9.72H183.728V12.552H172.88Z" fill="black"/>
</svg>
